<?xml version="1.0" encoding="utf-8"?>
<!-- Generator: Adobe Illustrator 26.0.3, SVG Export Plug-In . SVG Version: 6.00 Build 0)  -->
<svg version="1.1" id="Layer_1" xmlns="http://www.w3.org/2000/svg" xmlns:xlink="http://www.w3.org/1999/xlink" x="0px" y="0px"
	 viewBox="0 0 244 40" style="enable-background:new 0 0 244 40;" xml:space="preserve">
<style type="text/css">
	.st0{fill:#4CA9DA;}
</style>
<g>
	<path class="st0" d="M10.6,3.4h18.2V7h-7.2v23h-3.8V7h-7.2C10.6,7,10.6,3.4,10.6,3.4z"/>
	<path class="st0" d="M40.6,15.3c-0.4-0.1-0.8-0.2-1.4-0.2c-1.9,0-3.8,1.3-4.8,3V30h-3.6V12.1h3.5v2.1c0.9-1.2,2.7-2.4,5.4-2.4
		c0.4,0,1,0,1.4,0.1L40.6,15.3z"/>
	<path class="st0" d="M57.6,28.3c-1.4,1.3-3.4,2-5.5,2c-1.6,0-3.3-0.5-4.5-1.2C44.9,27.5,43,24.5,43,21s1.9-6.6,4.6-8.2
		c1.2-0.7,2.7-1.1,4.4-1.1c2,0,4,0.6,5.6,2v-1.6h3.5V30h-3.5V28.3z M57.5,17.7c-1.1-1.4-2.9-2.5-5.1-2.5c-3.5,0-5.7,2.8-5.7,5.9
		c0,3.2,2.5,5.9,5.9,5.9c1.8,0,3.7-0.9,4.9-2.5C57.5,24.5,57.5,17.7,57.5,17.7z"/>
	<path class="st0" d="M83.5,26.2c-1.5,2.5-4.7,4.2-7.9,4.2c-5.5,0-9.5-4-9.5-9.3s4-9.3,9.3-9.3c3.1,0,5.9,1.6,7.6,3.9l-2.7,2.2
		c-1-1.4-2.7-2.7-4.9-2.7c-3.2,0-5.7,2.5-5.7,5.9c0,3.5,2.5,5.9,5.9,5.9c2.4,0,4-1.3,5.2-2.8L83.5,26.2z"/>
	<path class="st0" d="M87.5,39.1l4.8-11l-7.6-16h3.9l5.6,11.8l5.1-11.8h3.8l-11.7,27H87.5z"/>
	<path class="st0" d="M112.9,3.4h18.2V7H124v23h-3.8V7H113L112.9,3.4L112.9,3.4z"/>
	<path class="st0" d="M134,27.4c-1.1-1.4-1.6-3.1-1.6-6.1v-9.1h3.6v9.7c0,1.8,0.4,2.8,1,3.6c0.8,1,2.1,1.6,3.5,1.6
		c2.2,0,4-1.3,5-2.5V12.1h3.6V30h-3.5v-1.6c-0.8,0.8-2.8,2-5.2,2C137.8,30.4,135.4,29.2,134,27.4z"/>
	<path class="st0" d="M171.5,26.2c-1.5,2.5-4.7,4.2-7.9,4.2c-5.5,0-9.5-4-9.5-9.3s4-9.3,9.3-9.3c3.1,0,5.9,1.6,7.6,3.9l-2.7,2.2
		c-1-1.4-2.7-2.7-4.9-2.7c-3.2,0-5.7,2.5-5.7,5.9c0,3.5,2.5,5.9,5.9,5.9c2.4,0,4-1.3,5.2-2.8L171.5,26.2z"/>
	<path class="st0" d="M192.9,30h-4.8l-8.9-8.7V30h-3.6V3h3.6v16l7.4-6.8h5.1l-8.9,8.1L192.9,30z"/>
	<path class="st0" d="M197.4,21.8c0.2,3,2.7,5.4,5.8,5.4c2.7,0,4.1-1.3,5.1-2.4l2.4,2.2c-1.3,1.7-3.9,3.3-7.5,3.3
		c-5.2,0-9.2-4-9.2-9.3s3.6-9.3,8.7-9.3c5,0,8.6,4,8.6,9.3c0,0.2,0,0.4,0,0.8H197.4z M197.7,18.8h9.7c-0.5-2.3-2.6-3.9-4.7-3.9
		C200.4,14.9,198.3,16.5,197.7,18.8z"/>
	<path class="st0" d="M226,15.3c-0.4-0.1-0.8-0.2-1.4-0.2c-1.9,0-3.8,1.3-4.8,3V30h-3.6V12.1h3.5v2.1c0.9-1.2,2.7-2.4,5.4-2.4
		c0.4,0,1,0,1.4,0.1L226,15.3z"/>
</g>
</svg>
